<?xml version="1.0" standalone="no"?><!DOCTYPE svg PUBLIC "-//W3C//DTD SVG 1.1//EN" "http://www.w3.org/Graphics/SVG/1.1/DTD/svg11.dtd"><svg t="1501137831381" class="icon" style="" viewBox="0 0 1024 1024" version="1.1" xmlns="http://www.w3.org/2000/svg" p-id="2351" xmlns:xlink="http://www.w3.org/1999/xlink" width="48" height="48"><defs><style type="text/css"></style></defs><path d="M275.566933 515.638613c0-136.318293 110.508373-246.826667 246.826667-246.826666 64.1792 0.116053 123.665067 25.055573 168.060587 66.70848L933.358933 82.95424 525.5424 23.6544 118.586027 89.0624 28.741973 520.762027l91.758934 407.386453 228.143786-237.21472c-45.124267-44.72832-73.07776-106.745173-73.07776-175.295147z" fill="#8FCF66" p-id="2352"></path><path d="M398.795093 514.899627c0 33.836373 13.62432 64.482987 35.682987 86.780586L605.2864 424.075947a122.89024 122.89024 0 0 0-83.08224-32.587094c-68.154027-0.001707-123.409067 55.253333-123.409067 123.410774z" fill="#8FCF66" p-id="2353"></path><path d="M933.358933 82.95424L690.454187 335.522133c33.26976 31.21664 58.07104 71.814827 70.007466 118.411947h-131.498666a122.67008 122.67008 0 0 0-23.671467-29.85984L434.47808 601.678507c22.365867 22.613333 53.408427 36.6336 87.72608 36.6336 45.354667 0 84.538027-24.68352 106.013013-61.090134h132.360534c-27.521707 106.262187-123.226453 185.24672-238.18752 185.24672-67.76832 0-129.148587-27.32032-173.75744-71.53664L120.4992 928.145067l407.81824 79.356586 406.831787-85.58592 80.590506-410.903893-82.3808-428.0576z" fill="#5EAF5E" p-id="2354"></path><path d="M522.3936 762.46528c-136.316587 0-246.826667-110.51008-246.826667-246.826667s110.508373-246.826667 246.826667-246.826666c112.285013 0.2048 210.205013 76.347733 238.062933 185.120426h-131.498666a122.922667 122.922667 0 0 0-106.753707-62.446933c-68.159147 0-123.41248 55.25504-123.41248 123.415893s55.253333 123.41248 123.41248 123.41248c45.354667 0 84.538027-24.681813 106.013013-61.088426h132.360534c-27.518293 106.258773-123.226453 185.239893-238.184107 185.239893z" fill="#FFFFFF" p-id="2355"></path></svg>